# xmcd CD database file
#
# Track frame offsets:
#	183
#	26508
#	43358
#	65758
#	84170
#	102795
#	134520
#	153558
#	179095
#
# Disc length: 2826 seconds
#
# Revision: 2
# Processed by: cddbd v1.5.2PL0 Copyright (c) Steve Scherf et al.
# Submitted via: CDex 1.51
#
DISCID=7c0b0809
DTITLE=Lonnie Brooks - Live From Chicago - Bayou Lightning Strikes
DYEAR=1988
DGENRE=Blues
TTITLE0=Two Headed Man (Live)
TTITLE1=Trading Post (Live)
TTITLE2=In The Dark (Live)
TTITLE3=Got Me By The Tail (Live)
TTITLE4=One More Shot (Live)
TTITLE5=Born With The Blues (Live)
TTITLE6=Eyeballin (Live)
TTITLE7=Cold Lonely Nights (Live)
TTITLE8=Hideaway (Live)
EXTD=YEAR: 1988
EXTT0=
EXTT1=
EXTT2=
EXTT3=
EXTT4=
EXTT5=
EXTT6=
EXTT7=
EXTT8=
PLAYORDER=
